<?xml version="1.0" encoding="UTF-8" standalone="no"?>
<!-- Created with Inkscape (http://www.inkscape.org/) -->

<svg
   width="115.8694mm"
   height="35.542217mm"
   viewBox="0 0 115.8694 35.542217"
   version="1.1"
   id="svg1"
   xmlns="http://www.w3.org/2000/svg"
   xmlns:svg="http://www.w3.org/2000/svg">
  <defs
     id="defs1">
    <clipPath
       clipPathUnits="userSpaceOnUse"
       id="clipPath4">
      <path
         d="M 0,0 H 1920 V 1080 H 0 Z"
         id="path4" />
    </clipPath>
    <clipPath
       clipPathUnits="userSpaceOnUse"
       id="clipPath6">
      <path
         d="M 0,0 H 1920 V 1080 H 0 Z"
         id="path6" />
    </clipPath>
    <clipPath
       clipPathUnits="userSpaceOnUse"
       id="clipPath8">
      <path
         d="M 0,0 H 1920 V 1080 H 0 Z"
         id="path8" />
    </clipPath>
    <clipPath
       clipPathUnits="userSpaceOnUse"
       id="clipPath10">
      <path
         d="M 0,0 H 1920 V 1080 H 0 Z"
         id="path10" />
    </clipPath>
    <clipPath
       clipPathUnits="userSpaceOnUse"
       id="clipPath12">
      <path
         d="M 0,0 H 1920 V 1080 H 0 Z"
         id="path12" />
    </clipPath>
    <clipPath
       clipPathUnits="userSpaceOnUse"
       id="clipPath14">
      <path
         d="M 0,0 H 1920 V 1080 H 0 Z"
         id="path14" />
    </clipPath>
    <clipPath
       clipPathUnits="userSpaceOnUse"
       id="clipPath16">
      <path
         d="M 0,0 H 1920 V 1080 H 0 Z"
         id="path16" />
    </clipPath>
    <clipPath
       clipPathUnits="userSpaceOnUse"
       id="clipPath18">
      <path
         d="M 0,0 H 1920 V 1080 H 0 Z"
         id="path18" />
    </clipPath>
    <clipPath
       clipPathUnits="userSpaceOnUse"
       id="clipPath20">
      <path
         d="M 0,0 H 1920 V 1080 H 0 Z"
         id="path20" />
    </clipPath>
    <clipPath
       clipPathUnits="userSpaceOnUse"
       id="clipPath22">
      <path
         d="M 0,0 H 1920 V 1080 H 0 Z"
         id="path22" />
    </clipPath>
    <clipPath
       clipPathUnits="userSpaceOnUse"
       id="clipPath24">
      <path
         d="M 0,0 H 1920 V 1080 H 0 Z"
         id="path24" />
    </clipPath>
    <clipPath
       clipPathUnits="userSpaceOnUse"
       id="clipPath26">
      <path
         d="M 0,0 H 1920 V 1080 H 0 Z"
         id="path26" />
    </clipPath>
    <clipPath
       clipPathUnits="userSpaceOnUse"
       id="clipPath28">
      <path
         d="M 0,0 H 1920 V 1080 H 0 Z"
         id="path28" />
    </clipPath>
    <clipPath
       clipPathUnits="userSpaceOnUse"
       id="clipPath30">
      <path
         d="M 0,0 H 1920 V 1080 H 0 Z"
         id="path30" />
    </clipPath>
    <clipPath
       clipPathUnits="userSpaceOnUse"
       id="clipPath32">
      <path
         d="M 0,0 H 1920 V 1080 H 0 Z"
         id="path32" />
    </clipPath>
    <clipPath
       clipPathUnits="userSpaceOnUse"
       id="clipPath34">
      <path
         d="M 0,0 H 1920 V 1080 H 0 Z"
         id="path34" />
    </clipPath>
    <clipPath
       clipPathUnits="userSpaceOnUse"
       id="clipPath36">
      <path
         d="M 0,0 H 1920 V 1080 H 0 Z"
         id="path36" />
    </clipPath>
    <clipPath
       clipPathUnits="userSpaceOnUse"
       id="clipPath38">
      <path
         d="M 0,0 H 1920 V 1080 H 0 Z"
         id="path38" />
    </clipPath>
    <clipPath
       clipPathUnits="userSpaceOnUse"
       id="clipPath40">
      <path
         d="M 0,0 H 1920 V 1080 H 0 Z"
         id="path40" />
    </clipPath>
    <clipPath
       clipPathUnits="userSpaceOnUse"
       id="clipPath42">
      <path
         d="M 0,0 H 1920 V 1080 H 0 Z"
         id="path42" />
    </clipPath>
    <clipPath
       clipPathUnits="userSpaceOnUse"
       id="clipPath44">
      <path
         d="M 0,0 H 1920 V 1080 H 0 Z"
         id="path44" />
    </clipPath>
  </defs>
  <g
     id="layer1"
     transform="translate(-52.387491,-125.41252)">
    <path
       id="path3"
       d="m 341.9895,743.9056 h -9.411 v -9.909 h -4.063 v 23.383 h 14.855 v -3.276 h -10.792 v -6.954 h 9.411 z"
       style="fill:#1d1d1b;fill-opacity:1;fill-rule:nonzero;stroke:none"
       transform="matrix(0.35277776,0,0,-0.35277776,-63.48303,419.77923)"
       clip-path="url(#clipPath4)" />
    <path
       id="path5"
       d="m 384.4885,744.4354 h -9.603 v -7.194 h 11.225 v -3.245 h -15.288 v 23.383 h 15.176 v -3.276 h -11.113 v -6.456 h 9.603 z"
       style="fill:#1d1d1b;fill-opacity:1;fill-rule:nonzero;stroke:none"
       transform="matrix(0.35277776,0,0,-0.35277776,-63.48303,419.77923)"
       clip-path="url(#clipPath6)" />
    <path
       id="path7"
       d="m 425.8793,740.0188 c 0,0.471 -0.07,0.892 -0.209,1.261 -0.139,0.369 -0.393,0.709 -0.763,1.02 -0.369,0.31 -0.878,0.607 -1.525,0.891 -0.648,0.284 -1.481,0.581 -2.497,0.891 -1.114,0.332 -2.142,0.712 -3.084,1.14 -0.942,0.428 -1.753,0.926 -2.433,1.494 -0.68,0.567 -1.212,1.22 -1.598,1.959 -0.385,0.739 -0.578,1.585 -0.578,2.537 0,0.942 0.201,1.81 0.602,2.602 0.402,0.792 0.966,1.477 1.695,2.056 0.728,0.578 1.6,1.027 2.617,1.349 1.017,0.321 2.141,0.481 3.373,0.481 1.317,0 2.499,-0.19 3.549,-0.57 1.049,-0.38 1.935,-0.897 2.658,-1.549 0.722,-0.654 1.276,-1.411 1.662,-2.273 0.385,-0.862 0.578,-1.78 0.578,-2.754 h -4.047 c 0,0.568 -0.088,1.089 -0.265,1.566 -0.177,0.476 -0.447,0.888 -0.811,1.236 -0.364,0.348 -0.825,0.619 -1.381,0.811 -0.557,0.193 -1.215,0.29 -1.975,0.29 -0.718,0 -1.339,-0.081 -1.863,-0.241 -0.525,-0.161 -0.961,-0.386 -1.309,-0.675 -0.348,-0.289 -0.605,-0.632 -0.771,-1.027 -0.166,-0.397 -0.249,-0.825 -0.249,-1.286 0,-0.866 0.41,-1.589 1.229,-2.168 0.819,-0.578 2.069,-1.113 3.749,-1.605 1.317,-0.386 2.458,-0.814 3.421,-1.285 0.964,-0.471 1.764,-1.004 2.401,-1.598 0.637,-0.594 1.111,-1.263 1.421,-2.008 0.311,-0.744 0.466,-1.581 0.466,-2.513 0,-0.985 -0.196,-1.871 -0.586,-2.657 -0.391,-0.787 -0.948,-1.457 -1.67,-2.008 -0.723,-0.551 -1.598,-0.974 -2.626,-1.268 -1.028,-0.295 -2.174,-0.442 -3.437,-0.442 -1.124,0 -2.232,0.152 -3.324,0.458 -1.092,0.305 -2.072,0.765 -2.939,1.38 -0.867,0.616 -1.566,1.384 -2.096,2.305 -0.53,0.921 -0.794,2.002 -0.794,3.244 h 4.063 c 0,-0.739 0.13,-1.373 0.393,-1.903 0.262,-0.53 0.621,-0.963 1.076,-1.3 0.455,-0.338 0.993,-0.584 1.614,-0.74 0.621,-0.155 1.29,-0.233 2.007,-0.233 1.414,0 2.476,0.287 3.188,0.86 0.712,0.573 1.068,1.33 1.068,2.272"
       style="fill:#1d1d1b;fill-opacity:1;fill-rule:nonzero;stroke:none"
       transform="matrix(0.35277776,0,0,-0.35277776,-63.48303,419.77923)"
       clip-path="url(#clipPath8)" />
    <path
       id="path9"
       d="m 474.6412,754.1033 h -7.291 v -20.107 h -4.031 v 20.107 h -7.226 v 3.276 h 18.548 z"
       style="fill:#1d1d1b;fill-opacity:1;fill-rule:nonzero;stroke:none"
       transform="matrix(0.35277776,0,0,-0.35277776,-63.48303,419.77923)"
       clip-path="url(#clipPath10)" />
    <path
       id="path11"
       d="m 502.189,733.997 h 4.047 v 23.383 h -4.047 z"
       style="fill:#1d1d1b;fill-opacity:1;fill-rule:nonzero;stroke:none"
       transform="matrix(0.35277776,0,0,-0.35277776,-63.48303,419.77923)"
       clip-path="url(#clipPath12)" />
    <path
       id="path13"
       d="m 543.7084,739.0875 5.942,18.292 h 4.464 l -8.415,-23.383 h -3.934 l -8.383,23.383 h 4.448 z"
       style="fill:#1d1d1b;fill-opacity:1;fill-rule:nonzero;stroke:none"
       transform="matrix(0.35277776,0,0,-0.35277776,-63.48303,419.77923)"
       clip-path="url(#clipPath14)" />
    <path
       id="path15"
       d="m 584.9546,742.7172 h 6.777 l -3.389,9.7 z m 7.917,-3.276 h -9.057 l -1.895,-5.444 h -4.224 l 8.833,23.382 h 3.645 l 8.849,-23.382 h -4.24 z"
       style="fill:#1d1d1b;fill-opacity:1;fill-rule:nonzero;stroke:none"
       transform="matrix(0.35277776,0,0,-0.35277776,-63.48303,419.77923)"
       clip-path="url(#clipPath16)" />
    <path
       id="path17"
       d="m 629.9749,737.241 h 10.615 v -3.244 h -14.678 v 23.382 h 4.063 z"
       style="fill:#1d1d1b;fill-opacity:1;fill-rule:nonzero;stroke:none"
       transform="matrix(0.35277776,0,0,-0.35277776,-63.48303,419.77923)"
       clip-path="url(#clipPath18)" />
    <path
       id="path19"
       d="m 340.0079,833.2555 h -11.556 v -0.169 l 13.423,-34.054 h -13.423 v -9.256 h 17.072 l 3.309,-8.394 h 11.623 z"
       style="fill:#1d1d1b;fill-opacity:1;fill-rule:nonzero;stroke:none"
       transform="matrix(0.35277776,0,0,-0.35277776,-63.48303,419.77923)"
       clip-path="url(#clipPath20)" />
    <path
       id="path21"
       d="m 400.5243,833.2555 v -32.176 l -13.493,19.241 v -19.697 l 13.493,-19.241 h 11.623 v 51.873 z"
       style="fill:#1d1d1b;fill-opacity:1;fill-rule:nonzero;stroke:none"
       transform="matrix(0.35277776,0,0,-0.35277776,-63.48303,419.77923)"
       clip-path="url(#clipPath22)" />
    <path
       id="path23"
       d="m 458.9047,833.2555 v -32.176 l -13.294,18.958 v -19.697 l 13.294,-18.958 h 11.623 v 51.873 z"
       style="fill:#1d1d1b;fill-opacity:1;fill-rule:nonzero;stroke:none"
       transform="matrix(0.35277776,0,0,-0.35277776,-63.48303,419.77923)"
       clip-path="url(#clipPath24)" />
    <path
       id="path25"
       d="m 504.19,823.495 h 23.809 v 9.761 H 504.19 Z"
       style="fill:#1d1d1b;fill-opacity:1;fill-rule:nonzero;stroke:none"
       transform="matrix(0.35277776,0,0,-0.35277776,-63.48303,419.77923)"
       clip-path="url(#clipPath26)" />
    <path
       id="path27"
       d="m 586.1255,796.5088 c -2.857,-2.884 -6.819,-4.671 -11.2,-4.671 -4.893,0 -9.264,2.232 -12.155,5.73 v -13.867 c 3.649,-1.86 7.779,-2.912 12.155,-2.912 7.432,0 14.157,3.023 19.014,7.906 z"
       style="fill:#1d1d1b;fill-opacity:1;fill-rule:nonzero;stroke:none"
       transform="matrix(0.35277776,0,0,-0.35277776,-63.48303,419.77923)"
       clip-path="url(#clipPath28)" />
    <path
       id="path29"
       d="m 643.0886,833.4708 -11.492,-16.388 -10.247,14.613 v -19.697 l 4.371,-6.234 v -24.382 h 11.624 v 24.199 l 19.556,27.889 z"
       style="fill:#1d1d1b;fill-opacity:1;fill-rule:nonzero;stroke:none"
       transform="matrix(0.35277776,0,0,-0.35277776,-63.48303,419.77923)"
       clip-path="url(#clipPath30)" />
    <path
       id="path31"
       d="m 574.9258,834.4254 c -4.377,0 -8.506,-1.052 -12.156,-2.912 v -13.867 c 2.892,3.498 7.262,5.729 12.156,5.729 4.306,0 8.207,-1.728 11.053,-4.526 l 7.814,7.815 c -4.845,4.797 -11.51,7.761 -18.867,7.761"
       style="fill:#1d1d1b;fill-opacity:1;fill-rule:nonzero;stroke:none"
       transform="matrix(0.35277776,0,0,-0.35277776,-63.48303,419.77923)"
       clip-path="url(#clipPath32)" />
    <path
       id="path33"
       d="m 504.19,781.594 h 23.809 v 9.761 H 504.19 Z"
       style="fill:#1d1d1b;fill-opacity:1;fill-rule:nonzero;stroke:none"
       transform="matrix(0.35277776,0,0,-0.35277776,-63.48303,419.77923)"
       clip-path="url(#clipPath34)" />
    <path
       id="path35"
       d="m 504.19,802.799 h 18.758 v 9.255 H 504.19 Z"
       style="fill:#1d1d1b;fill-opacity:1;fill-rule:nonzero;stroke:none"
       transform="matrix(0.35277776,0,0,-0.35277776,-63.48303,419.77923)"
       clip-path="url(#clipPath36)" />
    <path
       id="path37"
       d="m 550.5139,803.1072 h -6.827 v 1.214 l 3.308,3.824 c 0.538,0.635 0.911,1.159 1.12,1.571 0.208,0.412 0.312,0.807 0.312,1.185 0,0.451 -0.126,0.818 -0.378,1.101 -0.252,0.284 -0.613,0.426 -1.083,0.426 -0.548,0 -0.967,-0.177 -1.258,-0.531 -0.291,-0.354 -0.436,-0.8 -0.436,-1.338 h -1.709 l -0.014,0.044 c -0.025,0.906 0.275,1.673 0.898,2.301 0.622,0.628 1.462,0.942 2.519,0.942 1.013,0 1.804,-0.272 2.374,-0.815 0.569,-0.543 0.854,-1.255 0.854,-2.137 0,-0.596 -0.159,-1.156 -0.476,-1.68 -0.318,-0.523 -0.84,-1.224 -1.567,-2.101 l -2.232,-2.559 0.015,-0.037 h 4.58 z"
       style="fill:#000000;fill-opacity:1;fill-rule:nonzero;stroke:none"
       transform="matrix(0.35277776,0,0,-0.35277776,-63.48303,419.77923)"
       clip-path="url(#clipPath38)" />
    <path
       id="path39"
       d="m 567.978,810.1669 c 0,0.707 -0.15,1.261 -0.451,1.661 -0.3,0.4 -0.72,0.6 -1.258,0.6 -0.542,0 -0.962,-0.2 -1.257,-0.6 -0.296,-0.4 -0.444,-0.954 -0.444,-1.661 v -3.526 c 0,-0.718 0.15,-1.276 0.451,-1.676 0.3,-0.4 0.722,-0.6 1.265,-0.6 0.543,0 0.961,0.199 1.254,0.596 0.293,0.398 0.44,0.957 0.44,1.68 z m 1.767,-3.272 c 0,-1.221 -0.314,-2.183 -0.942,-2.886 -0.628,-0.703 -1.467,-1.054 -2.519,-1.054 -1.052,0 -1.895,0.352 -2.53,1.057 -0.635,0.706 -0.953,1.667 -0.953,2.883 v 3.003 c 0,1.216 0.315,2.179 0.946,2.886 0.63,0.708 1.471,1.062 2.522,1.062 1.052,0 1.894,-0.354 2.527,-1.062 0.633,-0.707 0.949,-1.67 0.949,-2.886 z"
       style="fill:#000000;fill-opacity:1;fill-rule:nonzero;stroke:none"
       transform="matrix(0.35277776,0,0,-0.35277776,-63.48303,419.77923)"
       clip-path="url(#clipPath40)" />
    <path
       id="path41"
       d="m 589.1791,803.1072 h -6.827 v 1.214 l 3.308,3.824 c 0.538,0.635 0.911,1.159 1.12,1.571 0.208,0.412 0.312,0.807 0.312,1.185 0,0.451 -0.126,0.818 -0.378,1.101 -0.252,0.284 -0.613,0.426 -1.083,0.426 -0.548,0 -0.967,-0.177 -1.258,-0.531 -0.291,-0.354 -0.436,-0.8 -0.436,-1.338 h -1.709 l -0.014,0.044 c -0.025,0.906 0.275,1.673 0.898,2.301 0.622,0.628 1.462,0.942 2.519,0.942 1.013,0 1.804,-0.272 2.374,-0.815 0.569,-0.543 0.854,-1.255 0.854,-2.137 0,-0.596 -0.159,-1.156 -0.476,-1.68 -0.318,-0.523 -0.84,-1.224 -1.567,-2.101 l -2.232,-2.559 0.015,-0.037 h 4.58 z"
       style="fill:#000000;fill-opacity:1;fill-rule:nonzero;stroke:none"
       transform="matrix(0.35277776,0,0,-0.35277776,-63.48303,419.77923)"
       clip-path="url(#clipPath42)" />
    <path
       id="path43"
       d="m 601.8593,807.7894 0.611,5.904 h 5.583 v -1.527 h -4.115 l -0.32,-2.697 c 0.209,0.15 0.457,0.276 0.746,0.378 0.288,0.101 0.607,0.155 0.956,0.16 0.984,0.009 1.749,-0.299 2.297,-0.924 0.548,-0.625 0.822,-1.49 0.822,-2.595 0,-1.047 -0.289,-1.898 -0.865,-2.552 -0.577,-0.655 -1.44,-0.982 -2.589,-0.982 -0.93,0 -1.717,0.251 -2.359,0.753 -0.642,0.501 -0.951,1.217 -0.927,2.148 l 0.015,0.036 1.657,0.051 c 0,-0.494 0.149,-0.881 0.447,-1.159 0.299,-0.279 0.687,-0.418 1.167,-0.418 0.553,0 0.972,0.186 1.258,0.559 0.286,0.373 0.429,0.89 0.429,1.549 0,0.635 -0.148,1.145 -0.443,1.53 -0.296,0.386 -0.718,0.578 -1.266,0.578 -0.484,0 -0.844,-0.077 -1.079,-0.232 -0.235,-0.155 -0.406,-0.383 -0.513,-0.684 z"
       style="fill:#000000;fill-opacity:1;fill-rule:nonzero;stroke:none"
       transform="matrix(0.35277776,0,0,-0.35277776,-63.48303,419.77923)"
       clip-path="url(#clipPath44)" />
  </g>
</svg>
