<?xml version="1.0" encoding="UTF-8" standalone="no"?>
<svg
   width="399.99988mm"
   height="225.00023mm"
   viewBox="0 0 399.99988 225.00023"
   version="1.1"
   id="svg1"
   xmlns="http://www.w3.org/2000/svg"
   xmlns:svg="http://www.w3.org/2000/svg">
  <defs
     id="defs1" />
  <path
     id="path89"
     style="display:inline;fill:#69bfb5;stroke:none"
     d="M 399.99987,0 199.99968,5.18e-4 H 3e-6 L 0,225.00023 H 399.99936 Z M 199.97022,16.838244 c 6.33261,-7.7e-5 11.46607,5.102026 11.46597,11.396204 9e-5,6.294154 -5.13334,11.397301 -11.46596,11.397246 -6.33201,-4.53e-4 -11.4645,-5.10375 -11.46442,-11.397241 -7e-5,-6.293515 5.1324,-11.395361 11.46441,-11.396209 z m 119.94204,3.992531 0.005,-10e-7 55.51444,-5e-6 c 4.2747,0.0012 7.73963,3.315141 7.73958,7.403683 5e-5,4.088675 -3.46515,7.403824 -7.7401,7.404201 l -55.51754,5e-6 c -4.27493,-3.58e-4 -7.74065,-3.315008 -7.74061,-7.403683 -3e-5,-4.088457 3.46499,-7.403282 7.73958,-7.4042 z m -295.417112,0.005 h 5.21e-4 0.0048 l 55.601264,7e-6 c 4.234422,4.54e-4 7.667266,3.313056 7.667226,7.399032 3.4e-5,4.086108 -3.433106,7.399161 -7.667746,7.39955 l -55.605386,-7e-6 c -4.23464,-3.58e-4 -7.667799,-3.312912 -7.667747,-7.399032 -4.6e-5,-4.085891 3.432925,-7.399547 7.667225,-7.39955 z M 105.61681,128.64522 h 20.43441 l 30.76453,40.55618 h 0.22686 v -40.55567 l 22.70508,1e-5 v 79.52072 h -19.41277 l -31.673,-41.80519 h -0.22686 l -1e-5,41.80519 -22.81824,1e-5 z m -59.726072,5.1e-4 25.656324,1e-5 29.516538,79.52073 -24.294117,-1e-5 -3.892788,-12.15532 -28.606008,-1e-5 -3.942395,12.15534 -23.499853,-1e-5 z m 142.643492,1e-5 h 22.93141 v 79.52072 h -22.93141 z m 29.41526,0 h 28.32799 l 33.6336,32.14946 0.007,-32.14946 22.93194,-1e-5 v 79.52073 l -22.93142,1e-5 v -29.87674 l -32.96078,29.87674 h -30.93867 l 43.00719,-39.76037 z m 93.68626,5.2e-4 70.7404,-1e-5 v 19.65306 h -47.80846 v 10.79211 h 43.26765 v 17.38086 l -43.26765,-1e-5 v 11.92796 h 48.60324 l -10e-6,19.76675 -71.53517,1e-5 z M 58.492046,152.1611 49.870867,178.74397 h 17.47542 L 58.832591,152.1611 Z" />
</svg>
